<svg xmlns="http://www.w3.org/2000/svg" viewBox="0 0 1120 560" width="1120" height="560"><rect width="1120" height="560" fill="#0d0d0f"/><rect x="90" y="70" width="940" height="2" fill="#2a2a30"/><rect x="90" y="70" width="150" height="2" fill="#e11d2a"/><g transform="translate(92,58) scale(0.019,-0.019)" fill="#e11d2a"><path d="M227 135V321H741V135ZM642 750 978 0H729L457 649H520L247 0H-1L334 750Z" transform="translate(0,0)"/><path d="M65 750H298V0H65Z" transform="translate(1157,0)"/><path d="M494 750Q592 750 662.5 717.0Q733 684 770.0 624.5Q807 565 807 484Q807 404 770.0 344.0Q733 284 662.5 251.0Q592 218 494 218H173V402H479Q523 402 547.5 424.0Q572 446 572 484Q572 524 547.5 545.0Q523 566 479 566H193L298 672V0H65V750Z" transform="translate(2121,0)"/><path d="M226 426H488Q532 426 556.5 446.0Q581 466 581 504Q581 542 556.5 562.0Q532 582 488 582H193L298 690V0H65V750H523Q610 750 676.0 719.0Q742 688 779.0 633.0Q816 578 816 504Q816 432 779.0 376.5Q742 321 676.0 290.5Q610 260 523 260H226ZM326 351H585L843 0H576Z" transform="translate(3126,0)"/><path d="M485 -17Q350 -17 248.5 32.0Q147 81 90.5 169.0Q34 257 34 375Q34 493 90.5 581.0Q147 669 248.5 718.0Q350 767 485 767Q620 767 721.5 718.0Q823 669 879.5 581.0Q936 493 936 375Q936 257 879.5 169.0Q823 81 721.5 32.0Q620 -17 485 -17ZM485 190Q552 190 600.5 212.5Q649 235 675.0 276.5Q701 318 701 375Q701 432 675.0 473.5Q649 515 600.5 537.5Q552 560 485 560Q418 560 369.5 537.5Q321 515 295.0 473.5Q269 432 269 375Q269 318 295.0 276.5Q321 235 369.5 212.5Q418 190 485 190Z" transform="translate(4169,0)"/><path d="M451 750Q586 750 687.5 703.5Q789 657 845.5 573.0Q902 489 902 375Q902 262 845.5 177.5Q789 93 687.5 46.5Q586 0 451 0H65V750ZM296 101 189 207H469Q530 207 574.5 227.5Q619 248 643.0 286.0Q667 324 667 375Q667 427 643.0 464.5Q619 502 574.5 522.5Q530 543 469 543H189L296 649Z" transform="translate(5319,0)"/><path d="M288 340Q288 293 305.0 260.0Q322 227 356.0 208.5Q390 190 441 190Q494 190 528.0 208.0Q562 226 578.5 259.5Q595 293 595 340V750H828V327Q828 224 780.0 146.5Q732 69 645.0 26.0Q558 -17 441 -17Q326 -17 239.0 26.0Q152 69 103.5 146.5Q55 224 55 327V750H288Z" transform="translate(6435,0)"/><path d="M913 319Q901 219 843.5 143.0Q786 67 691.5 25.0Q597 -17 475 -17Q343 -17 244.0 32.0Q145 81 90.0 169.0Q35 257 35 375Q35 493 90.0 581.0Q145 669 244.0 718.0Q343 767 475 767Q597 767 691.5 725.0Q786 683 843.5 607.5Q901 532 913 431H679Q669 474 642.5 504.5Q616 535 574.0 551.5Q532 568 475 568Q411 568 365.0 545.0Q319 522 294.0 478.5Q269 435 269 375Q269 315 294.0 272.0Q319 229 365.0 205.5Q411 182 475 182Q532 182 574.0 197.5Q616 213 642.5 244.0Q669 275 679 319Z" transform="translate(7499,0)"/><path d="M298 649H531V0H298ZM20 750H809V543H20Z" transform="translate(8621,0)"/><path d="M65 750H298V0H65Z" transform="translate(9630,0)"/><path d="M485 -17Q350 -17 248.5 32.0Q147 81 90.5 169.0Q34 257 34 375Q34 493 90.5 581.0Q147 669 248.5 718.0Q350 767 485 767Q620 767 721.5 718.0Q823 669 879.5 581.0Q936 493 936 375Q936 257 879.5 169.0Q823 81 721.5 32.0Q620 -17 485 -17ZM485 190Q552 190 600.5 212.5Q649 235 675.0 276.5Q701 318 701 375Q701 432 675.0 473.5Q649 515 600.5 537.5Q552 560 485 560Q418 560 369.5 537.5Q321 515 295.0 473.5Q269 432 269 375Q269 318 295.0 276.5Q321 235 369.5 212.5Q418 190 485 190Z" transform="translate(10172,0)"/><path d="M760 166 693 152V750H919V0H627L224 598L290 612V0H65V750H366Z" transform="translate(11322,0)"/><path d="M36 246H272Q276 220 297.5 200.5Q319 181 356.0 170.5Q393 160 443 160Q512 160 550.5 176.0Q589 192 589 225Q589 248 567.0 262.5Q545 277 480 282L348 293Q186 305 113.5 363.5Q41 422 41 521Q41 602 88.0 656.5Q135 711 219.0 739.0Q303 767 417 767Q527 767 612.5 736.0Q698 705 748.5 648.5Q799 592 804 517H568Q564 539 545.5 555.5Q527 572 493.0 581.0Q459 590 412 590Q350 590 313.5 575.0Q277 560 277 530Q277 508 298.5 494.0Q320 480 378 475L523 463Q631 455 697.5 429.5Q764 404 794.0 360.5Q824 317 824 251Q824 171 776.0 110.5Q728 50 641.5 16.5Q555 -17 439 -17Q320 -17 230.0 16.0Q140 49 89.0 108.5Q38 168 36 246Z" transform="translate(12907,0)"/><path d="M298 649H531V0H298ZM20 750H809V543H20Z" transform="translate(13944,0)"/><path d="M288 340Q288 293 305.0 260.0Q322 227 356.0 208.5Q390 190 441 190Q494 190 528.0 208.0Q562 226 578.5 259.5Q595 293 595 340V750H828V327Q828 224 780.0 146.5Q732 69 645.0 26.0Q558 -17 441 -17Q326 -17 239.0 26.0Q152 69 103.5 146.5Q55 224 55 327V750H288Z" transform="translate(14953,0)"/><path d="M451 750Q586 750 687.5 703.5Q789 657 845.5 573.0Q902 489 902 375Q902 262 845.5 177.5Q789 93 687.5 46.5Q586 0 451 0H65V750ZM296 101 189 207H469Q530 207 574.5 227.5Q619 248 643.0 286.0Q667 324 667 375Q667 427 643.0 464.5Q619 502 574.5 522.5Q530 543 469 543H189L296 649Z" transform="translate(16017,0)"/><path d="M65 750H298V0H65Z" transform="translate(17133,0)"/><path d="M485 -17Q350 -17 248.5 32.0Q147 81 90.5 169.0Q34 257 34 375Q34 493 90.5 581.0Q147 669 248.5 718.0Q350 767 485 767Q620 767 721.5 718.0Q823 669 879.5 581.0Q936 493 936 375Q936 257 879.5 169.0Q823 81 721.5 32.0Q620 -17 485 -17ZM485 190Q552 190 600.5 212.5Q649 235 675.0 276.5Q701 318 701 375Q701 432 675.0 473.5Q649 515 600.5 537.5Q552 560 485 560Q418 560 369.5 537.5Q321 515 295.0 473.5Q269 432 269 375Q269 318 295.0 276.5Q321 235 369.5 212.5Q418 190 485 190Z" transform="translate(17675,0)"/></g><clipPath id="clip120_150"><rect x="120" y="150" width="150" height="150" rx="16.5"/></clipPath><g clip-path="url(#clip120_150)"><rect x="120" y="150" width="150" height="150" rx="16.5" fill="#16161a"/><g transform="translate(130.416,270.0) scale(0.138,-0.138)" fill="#f2f2f4"><path d="M451 750Q586 750 687.5 703.5Q789 657 845.5 573.0Q902 489 902 375Q902 262 845.5 177.5Q789 93 687.5 46.5Q586 0 451 0H65V750ZM296 101 189 207H469Q530 207 574.5 227.5Q619 248 643.0 286.0Q667 324 667 375Q667 427 643.0 464.5Q619 502 574.5 522.5Q530 543 469 543H189L296 649Z" transform="translate(0,0)"/></g><rect x="52.5" y="217.5" width="285.0" height="15.0" rx="7.5" fill="#e11d2a" transform="rotate(-28 195.0 225.0)"/></g><rect x="120" y="150" width="150" height="150" rx="16.5" fill="none" stroke="#2a2a30" stroke-width="2"/><g transform="translate(315,265) scale(0.118,-0.118)" fill="#f2f2f4"><path d="M451 750Q586 750 687.5 703.5Q789 657 845.5 573.0Q902 489 902 375Q902 262 845.5 177.5Q789 93 687.5 46.5Q586 0 451 0H65V750ZM296 101 189 207H469Q530 207 574.5 227.5Q619 248 643.0 286.0Q667 324 667 375Q667 427 643.0 464.5Q619 502 574.5 522.5Q530 543 469 543H189L296 649Z" transform="translate(0,0)"/><path d="M288 340Q288 293 305.0 260.0Q322 227 356.0 208.5Q390 190 441 190Q494 190 528.0 208.0Q562 226 578.5 259.5Q595 293 595 340V750H828V327Q828 224 780.0 146.5Q732 69 645.0 26.0Q558 -17 441 -17Q326 -17 239.0 26.0Q152 69 103.5 146.5Q55 224 55 327V750H288Z" transform="translate(946,0)"/><path d="M226 426H488Q532 426 556.5 446.0Q581 466 581 504Q581 542 556.5 562.0Q532 582 488 582H193L298 690V0H65V750H523Q610 750 676.0 719.0Q742 688 779.0 633.0Q816 578 816 504Q816 432 779.0 376.5Q742 321 676.0 290.5Q610 260 523 260H226ZM326 351H585L843 0H576Z" transform="translate(1840,0)"/><path d="M451 750Q586 750 687.5 703.5Q789 657 845.5 573.0Q902 489 902 375Q902 262 845.5 177.5Q789 93 687.5 46.5Q586 0 451 0H65V750ZM296 101 189 207H469Q530 207 574.5 227.5Q619 248 643.0 286.0Q667 324 667 375Q667 427 643.0 464.5Q619 502 574.5 522.5Q530 543 469 543H189L296 649Z" transform="translate(2713,0)"/><path d="M485 -17Q350 -17 248.5 32.0Q147 81 90.5 169.0Q34 257 34 375Q34 493 90.5 581.0Q147 669 248.5 718.0Q350 767 485 767Q620 767 721.5 718.0Q823 669 879.5 581.0Q936 493 936 375Q936 257 879.5 169.0Q823 81 721.5 32.0Q620 -17 485 -17ZM485 190Q552 190 600.5 212.5Q649 235 675.0 276.5Q701 318 701 375Q701 432 675.0 473.5Q649 515 600.5 537.5Q552 560 485 560Q418 560 369.5 537.5Q321 515 295.0 473.5Q269 432 269 375Q269 318 295.0 276.5Q321 235 369.5 212.5Q418 190 485 190Z" transform="translate(3659,0)"/><path d="M1191 750V0H969V664L1015 659L744 0H512L240 657L286 663V0H65V750H424L671 123H586L831 750Z" transform="translate(4639,0)"/></g><rect x="319" y="288" width="150" height="7" fill="#e11d2a"/><g transform="translate(321,345) scale(0.034,-0.034)" fill="#a8a8b0"><path d="M227 135V321H741V135ZM642 750 978 0H729L457 649H520L247 0H-1L334 750Z" transform="translate(0,0)"/><path d="M65 750H298V0H65Z" transform="translate(1237,0)"/><path d="M36 246H272Q276 220 297.5 200.5Q319 181 356.0 170.5Q393 160 443 160Q512 160 550.5 176.0Q589 192 589 225Q589 248 567.0 262.5Q545 277 480 282L348 293Q186 305 113.5 363.5Q41 422 41 521Q41 602 88.0 656.5Q135 711 219.0 739.0Q303 767 417 767Q527 767 612.5 736.0Q698 705 748.5 648.5Q799 592 804 517H568Q564 539 545.5 555.5Q527 572 493.0 581.0Q459 590 412 590Q350 590 313.5 575.0Q277 560 277 530Q277 508 298.5 494.0Q320 480 378 475L523 463Q631 455 697.5 429.5Q764 404 794.0 360.5Q824 317 824 251Q824 171 776.0 110.5Q728 50 641.5 16.5Q555 -17 439 -17Q320 -17 230.0 16.0Q140 49 89.0 108.5Q38 168 36 246Z" transform="translate(2361,0)"/><path d="M298 649H531V0H298ZM20 750H809V543H20Z" transform="translate(3478,0)"/><path d="M288 340Q288 293 305.0 260.0Q322 227 356.0 208.5Q390 190 441 190Q494 190 528.0 208.0Q562 226 578.5 259.5Q595 293 595 340V750H828V327Q828 224 780.0 146.5Q732 69 645.0 26.0Q558 -17 441 -17Q326 -17 239.0 26.0Q152 69 103.5 146.5Q55 224 55 327V750H288Z" transform="translate(4567,0)"/><path d="M451 750Q586 750 687.5 703.5Q789 657 845.5 573.0Q902 489 902 375Q902 262 845.5 177.5Q789 93 687.5 46.5Q586 0 451 0H65V750ZM296 101 189 207H469Q530 207 574.5 227.5Q619 248 643.0 286.0Q667 324 667 375Q667 427 643.0 464.5Q619 502 574.5 522.5Q530 543 469 543H189L296 649Z" transform="translate(5711,0)"/><path d="M65 750H298V0H65Z" transform="translate(6907,0)"/><path d="M485 -17Q350 -17 248.5 32.0Q147 81 90.5 169.0Q34 257 34 375Q34 493 90.5 581.0Q147 669 248.5 718.0Q350 767 485 767Q620 767 721.5 718.0Q823 669 879.5 581.0Q936 493 936 375Q936 257 879.5 169.0Q823 81 721.5 32.0Q620 -17 485 -17ZM485 190Q552 190 600.5 212.5Q649 235 675.0 276.5Q701 318 701 375Q701 432 675.0 473.5Q649 515 600.5 537.5Q552 560 485 560Q418 560 369.5 537.5Q321 515 295.0 473.5Q269 432 269 375Q269 318 295.0 276.5Q321 235 369.5 212.5Q418 190 485 190Z" transform="translate(7529,0)"/></g><rect x="90" y="500" width="940" height="2" fill="#2a2a30"/><rect x="880" y="500" width="150" height="2" fill="#e11d2a"/></svg>