<svg xmlns="http://www.w3.org/2000/svg" viewBox="0 0 1000 220" width="1000" height="220"><rect width="1000" height="220" fill="#0d0d0f"/><clipPath id="mono"><rect x="70" y="58" width="104" height="104" rx="11.44"/></clipPath><g clip-path="url(#mono)"><g transform="translate(77.22175999999999,141.2) scale(0.09568,-0.09568)" fill="#f2f2f4"><path d="M451 750Q586 750 687.5 703.5Q789 657 845.5 573.0Q902 489 902 375Q902 262 845.5 177.5Q789 93 687.5 46.5Q586 0 451 0H65V750ZM296 101 189 207H469Q530 207 574.5 227.5Q619 248 643.0 286.0Q667 324 667 375Q667 427 643.0 464.5Q619 502 574.5 522.5Q530 543 469 543H189L296 649Z" transform="translate(0,0)"/></g><rect x="23.200000000000003" y="104.8" width="197.6" height="10.4" rx="5.2" fill="#f2f2f4" transform="rotate(-28 122.0 110.0)"/></g><rect x="70" y="58" width="104" height="104" rx="11.44" fill="none" stroke="#f2f2f4" stroke-width="3"/><g transform="translate(208,118) scale(0.064,-0.064)" fill="#f2f2f4"><path d="M451 750Q586 750 687.5 703.5Q789 657 845.5 573.0Q902 489 902 375Q902 262 845.5 177.5Q789 93 687.5 46.5Q586 0 451 0H65V750ZM296 101 189 207H469Q530 207 574.5 227.5Q619 248 643.0 286.0Q667 324 667 375Q667 427 643.0 464.5Q619 502 574.5 522.5Q530 543 469 543H189L296 649Z" transform="translate(0,0)"/><path d="M288 340Q288 293 305.0 260.0Q322 227 356.0 208.5Q390 190 441 190Q494 190 528.0 208.0Q562 226 578.5 259.5Q595 293 595 340V750H828V327Q828 224 780.0 146.5Q732 69 645.0 26.0Q558 -17 441 -17Q326 -17 239.0 26.0Q152 69 103.5 146.5Q55 224 55 327V750H288Z" transform="translate(942,0)"/><path d="M226 426H488Q532 426 556.5 446.0Q581 466 581 504Q581 542 556.5 562.0Q532 582 488 582H193L298 690V0H65V750H523Q610 750 676.0 719.0Q742 688 779.0 633.0Q816 578 816 504Q816 432 779.0 376.5Q742 321 676.0 290.5Q610 260 523 260H226ZM326 351H585L843 0H576Z" transform="translate(1832,0)"/><path d="M451 750Q586 750 687.5 703.5Q789 657 845.5 573.0Q902 489 902 375Q902 262 845.5 177.5Q789 93 687.5 46.5Q586 0 451 0H65V750ZM296 101 189 207H469Q530 207 574.5 227.5Q619 248 643.0 286.0Q667 324 667 375Q667 427 643.0 464.5Q619 502 574.5 522.5Q530 543 469 543H189L296 649Z" transform="translate(2701,0)"/><path d="M485 -17Q350 -17 248.5 32.0Q147 81 90.5 169.0Q34 257 34 375Q34 493 90.5 581.0Q147 669 248.5 718.0Q350 767 485 767Q620 767 721.5 718.0Q823 669 879.5 581.0Q936 493 936 375Q936 257 879.5 169.0Q823 81 721.5 32.0Q620 -17 485 -17ZM485 190Q552 190 600.5 212.5Q649 235 675.0 276.5Q701 318 701 375Q701 432 675.0 473.5Q649 515 600.5 537.5Q552 560 485 560Q418 560 369.5 537.5Q321 515 295.0 473.5Q269 432 269 375Q269 318 295.0 276.5Q321 235 369.5 212.5Q418 190 485 190Z" transform="translate(3643,0)"/><path d="M1191 750V0H969V664L1015 659L744 0H512L240 657L286 663V0H65V750H424L671 123H586L831 750Z" transform="translate(4619,0)"/></g><g transform="translate(211,158) scale(0.024,-0.024)" fill="#f2f2f4"><path d="M227 135V321H741V135ZM642 750 978 0H729L457 649H520L247 0H-1L334 750Z" transform="translate(0,0)"/><path d="M65 750H298V0H65Z" transform="translate(1147,0)"/><path d="M36 246H272Q276 220 297.5 200.5Q319 181 356.0 170.5Q393 160 443 160Q512 160 550.5 176.0Q589 192 589 225Q589 248 567.0 262.5Q545 277 480 282L348 293Q186 305 113.5 363.5Q41 422 41 521Q41 602 88.0 656.5Q135 711 219.0 739.0Q303 767 417 767Q527 767 612.5 736.0Q698 705 748.5 648.5Q799 592 804 517H568Q564 539 545.5 555.5Q527 572 493.0 581.0Q459 590 412 590Q350 590 313.5 575.0Q277 560 277 530Q277 508 298.5 494.0Q320 480 378 475L523 463Q631 455 697.5 429.5Q764 404 794.0 360.5Q824 317 824 251Q824 171 776.0 110.5Q728 50 641.5 16.5Q555 -17 439 -17Q320 -17 230.0 16.0Q140 49 89.0 108.5Q38 168 36 246Z" transform="translate(2091,0)"/><path d="M298 649H531V0H298ZM20 750H809V543H20Z" transform="translate(3118,0)"/><path d="M288 340Q288 293 305.0 260.0Q322 227 356.0 208.5Q390 190 441 190Q494 190 528.0 208.0Q562 226 578.5 259.5Q595 293 595 340V750H828V327Q828 224 780.0 146.5Q732 69 645.0 26.0Q558 -17 441 -17Q326 -17 239.0 26.0Q152 69 103.5 146.5Q55 224 55 327V750H288Z" transform="translate(4117,0)"/><path d="M451 750Q586 750 687.5 703.5Q789 657 845.5 573.0Q902 489 902 375Q902 262 845.5 177.5Q789 93 687.5 46.5Q586 0 451 0H65V750ZM296 101 189 207H469Q530 207 574.5 227.5Q619 248 643.0 286.0Q667 324 667 375Q667 427 643.0 464.5Q619 502 574.5 522.5Q530 543 469 543H189L296 649Z" transform="translate(5171,0)"/><path d="M65 750H298V0H65Z" transform="translate(6277,0)"/><path d="M485 -17Q350 -17 248.5 32.0Q147 81 90.5 169.0Q34 257 34 375Q34 493 90.5 581.0Q147 669 248.5 718.0Q350 767 485 767Q620 767 721.5 718.0Q823 669 879.5 581.0Q936 493 936 375Q936 257 879.5 169.0Q823 81 721.5 32.0Q620 -17 485 -17ZM485 190Q552 190 600.5 212.5Q649 235 675.0 276.5Q701 318 701 375Q701 432 675.0 473.5Q649 515 600.5 537.5Q552 560 485 560Q418 560 369.5 537.5Q321 515 295.0 473.5Q269 432 269 375Q269 318 295.0 276.5Q321 235 369.5 212.5Q418 190 485 190Z" transform="translate(6809,0)"/></g></svg>