<svg xmlns="http://www.w3.org/2000/svg" viewBox="0 0 240 240" width="240" height="240"><rect width="240" height="240" fill="#0d0d0f"/><clipPath id="clip30_30"><rect x="30" y="30" width="180" height="180" rx="19.8"/></clipPath><g clip-path="url(#clip30_30)"><rect x="30" y="30" width="180" height="180" rx="19.8" fill="#16161a"/><g transform="translate(42.4992,174.0) scale(0.1656,-0.1656)" fill="#f2f2f4"><path d="M451 750Q586 750 687.5 703.5Q789 657 845.5 573.0Q902 489 902 375Q902 262 845.5 177.5Q789 93 687.5 46.5Q586 0 451 0H65V750ZM296 101 189 207H469Q530 207 574.5 227.5Q619 248 643.0 286.0Q667 324 667 375Q667 427 643.0 464.5Q619 502 574.5 522.5Q530 543 469 543H189L296 649Z" transform="translate(0,0)"/></g><rect x="-51.0" y="111.0" width="342.0" height="18.0" rx="9.0" fill="#e11d2a" transform="rotate(-28 120.0 120.0)"/></g><rect x="30" y="30" width="180" height="180" rx="19.8" fill="none" stroke="#2a2a30" stroke-width="2"/></svg>